<svg width="24" height="24" viewBox="0 0 24 24" fill="none" xmlns="http://www.w3.org/2000/svg">
<path d="M7.84082 12.4577C7.84082 9.90778 9.9079 7.8407 12.4578 7.8407L19.3832 7.8407C21.9331 7.8407 24.0002 9.90778 24.0002 12.4577C24.0002 15.0075 21.9331 17.0746 19.3832 17.0746H12.4578C9.9079 17.0746 7.84082 15.0075 7.84082 12.4577Z" fill="#FF868E"/>
<path d="M12.4578 24C9.9079 24 7.84082 21.9329 7.84082 19.383L7.84082 12.4576C7.84082 9.90772 9.9079 7.84063 12.4578 7.84063C15.0077 7.84063 17.0747 9.90772 17.0747 12.4576V19.383C17.0747 21.9329 15.0077 24 12.4578 24Z" fill="#FF868E"/>
<path d="M11.5422 2.8856C11.5422 4.47927 10.2503 5.7712 8.6566 5.7712C7.06292 5.7712 5.771 4.47927 5.771 2.8856C5.771 1.29193 7.06292 0 8.6566 0C10.2503 0 11.5422 1.29193 11.5422 2.8856Z" fill="#FF868E"/>
<path d="M5.7712 16.7365C5.7712 18.3302 4.47927 19.6221 2.8856 19.6221C1.29193 19.6221 0 18.3302 0 16.7365C0 15.1428 1.29193 13.8509 2.8856 13.8509C4.47927 13.8509 5.7712 15.1428 5.7712 16.7365Z" fill="#FF868E"/>
<path d="M19.6223 2.8856C19.6223 4.47927 18.3303 5.7712 16.7367 5.7712C15.143 5.7712 13.8511 4.47927 13.8511 2.8856C13.8511 1.29193 15.143 0 16.7367 0C18.3303 0 19.6223 1.29193 19.6223 2.8856Z" fill="#FF868E"/>
<path d="M5.7712 8.65678C5.7712 10.2505 4.47927 11.5424 2.8856 11.5424C1.29193 11.5424 0 10.2505 0 8.65678C0 7.06311 1.29193 5.77118 2.8856 5.77118C4.47927 5.77118 5.7712 7.06311 5.7712 8.65678Z" fill="#FF868E"/>
</svg>
